<?xml version="1.0" encoding="us-ascii" standalone="no"?><svg xmlns="http://www.w3.org/2000/svg" xmlns:xlink="http://www.w3.org/1999/xlink" contentStyleType="text/css" height="1355px" preserveAspectRatio="none" style="width:2992px;height:1355px;background:#FFFFFF;" version="1.1" viewBox="0 0 2992 1355" width="2992px" zoomAndPan="magnify"><defs/><g><rect fill="#FFF2CC" height="1343.0088" style="stroke:#000000;stroke-width:1.0;" width="45" x="11" y="6"/><text fill="#000000" font-family="Verdana" font-size="13" font-weight="bold" lengthAdjust="spacing" textLength="34" x="16.5" y="19.0698">User</text><rect fill="#F8E6CC" height="1343.0088" style="stroke:#000000;stroke-width:1.0;" width="310.5" x="188" y="6"/><text fill="#000000" font-family="Verdana" font-size="13" font-weight="bold" lengthAdjust="spacing" textLength="73" x="306.75" y="19.0698">Client App</text><rect fill="#D5E8D4" height="1343.0088" style="stroke:#000000;stroke-width:1.0;" width="328" x="628" y="6"/><text fill="#000000" font-family="Verdana" font-size="13" font-weight="bold" lengthAdjust="spacing" textLength="89" x="747.5" y="19.0698">react-native</text><rect fill="#F8CECC" height="1343.0088" style="stroke:#000000;stroke-width:1.0;" width="110" x="1147.5" y="6"/><text fill="#000000" font-family="Verdana" font-size="13" font-weight="bold" lengthAdjust="spacing" textLength="55" x="1175" y="19.0698">asyncio</text><rect fill="#E1D5E7" height="1343.0088" style="stroke:#000000;stroke-width:1.0;" width="1138" x="1299" y="6"/><text fill="#000000" font-family="Verdana" font-size="13" font-weight="bold" lengthAdjust="spacing" textLength="53" x="1841.5" y="19.0698">uvicorn</text><rect fill="#DAE8FC" height="1343.0088" style="stroke:#000000;stroke-width:1.0;" width="99" x="2623" y="6"/><text fill="#000000" font-family="Verdana" font-size="13" font-weight="bold" lengthAdjust="spacing" textLength="58" x="2643.5" y="19.0698">FastAPI</text><rect fill="#F5F5F5" height="1343.0088" style="stroke:#000000;stroke-width:1.0;" width="143" x="2818" y="6"/><text fill="#000000" font-family="Verdana" font-size="13" font-weight="bold" lengthAdjust="spacing" textLength="63" x="2858" y="19.0698">starlette</text><rect fill="#FFFFFF" height="1123.3809" style="stroke:#000000;stroke-width:1.0;" width="10" x="240.5" y="135.6133"/><rect fill="#FFFFFF" height="1093.5815" style="stroke:#000000;stroke-width:1.0;" width="10" x="405.5" y="165.4126"/><rect fill="#FFFFFF" height="1055.7822" style="stroke:#000000;stroke-width:1.0;" width="10" x="410.5" y="203.2119"/><rect fill="#FFFFFF" height="1020.9829" style="stroke:#000000;stroke-width:1.0;" width="10" x="691.5" y="238.0112"/><rect fill="#FFFFFF" height="991.1836" style="stroke:#000000;stroke-width:1.0;" width="10" x="856.5" y="267.8105"/><rect fill="#FFFFFF" height="953.3843" style="stroke:#000000;stroke-width:1.0;" width="10" x="861.5" y="305.6099"/><rect fill="#FFFFFF" height="953.3843" style="stroke:#000000;stroke-width:1.0;" width="10" x="1197.5" y="305.6099"/><rect fill="#FFFFFF" height="953.3843" style="stroke:#000000;stroke-width:1.0;" width="10" x="1347.5" y="305.6099"/><rect fill="#FFFFFF" height="844.9863" style="stroke:#000000;stroke-width:1.0;" width="10" x="1352.5" y="414.0078"/><rect fill="#FFFFFF" height="14" style="stroke:#000000;stroke-width:1.0;" width="10" x="1948.5" y="443.8071"/><rect fill="#FFFFFF" height="472.5918" style="stroke:#000000;stroke-width:1.0;" width="10" x="1948.5" y="786.4023"/><rect fill="#FFFFFF" height="727.5884" style="stroke:#000000;stroke-width:1.0;" width="10" x="2127.5" y="531.4058"/><rect fill="#FFFFFF" height="689.7891" style="stroke:#000000;stroke-width:1.0;" width="10" x="2132.5" y="569.2051"/><rect fill="#FFFFFF" height="94.7993" style="stroke:#000000;stroke-width:1.0;" width="10" x="2137.5" y="612.0044"/><rect fill="#FFFFFF" height="25" style="stroke:#000000;stroke-width:1.0;" width="10" x="2142.5" y="654.8037"/><rect fill="#FFFFFF" height="507.3911" style="stroke:#000000;stroke-width:1.0;" width="10" x="2137.5" y="751.603"/><rect fill="#FFFFFF" height="442.7925" style="stroke:#000000;stroke-width:1.0;" width="10" x="2352.5" y="816.2017"/><rect fill="#FFFFFF" height="361.1938" style="stroke:#000000;stroke-width:1.0;" width="10" x="2357.5" y="897.8003"/><rect fill="#FFFFFF" height="318.3945" style="stroke:#000000;stroke-width:1.0;" width="10" x="2362.5" y="940.5996"/><rect fill="#FFFFFF" height="275.5952" style="stroke:#000000;stroke-width:1.0;" width="10" x="2367.5" y="983.3989"/><rect fill="#FFFFFF" height="232.7959" style="stroke:#000000;stroke-width:1.0;" width="10" x="2372.5" y="1026.1982"/><rect fill="#FFFFFF" height="189.9966" style="stroke:#000000;stroke-width:1.0;" width="10" x="2377.5" y="1068.9976"/><rect fill="#FFFFFF" height="9" style="stroke:#000000;stroke-width:1.0;" width="10" x="2382.5" y="1249.9941"/><rect fill="#FFFFFF" height="111.3979" style="stroke:#000000;stroke-width:1.0;" width="10" x="2667.5" y="1147.5962"/><rect fill="#FFFFFF" height="81.5986" style="stroke:#000000;stroke-width:1.0;" width="10" x="2884.5" y="1177.3955"/><rect fill="#FFFFFF" height="43.7993" style="stroke:#000000;stroke-width:1.0;" width="10" x="2889.5" y="1215.1948"/><line style="stroke:#000000;stroke-width:1.0;" x1="33" x2="33" y1="103.814" y2="1267.9941"/><line style="stroke:#000000;stroke-width:1.0;" x1="245" x2="245" y1="103.814" y2="1267.9941"/><line style="stroke:#000000;stroke-width:1.0;" x1="410.5" x2="410.5" y1="103.814" y2="1267.9941"/><line style="stroke:#000000;stroke-width:1.0;" x1="696" x2="696" y1="103.814" y2="1267.9941"/><line style="stroke:#000000;stroke-width:1.0;" x1="861" x2="861" y1="103.814" y2="1267.9941"/><line style="stroke:#000000;stroke-width:1.0;" x1="1202.5" x2="1202.5" y1="103.814" y2="1267.9941"/><line style="stroke:#000000;stroke-width:1.0;" x1="1352" x2="1352" y1="103.814" y2="1267.9941"/><line style="stroke:#000000;stroke-width:1.0;" x1="1953.5" x2="1953.5" y1="103.814" y2="1267.9941"/><line style="stroke:#000000;stroke-width:1.0;" x1="2132" x2="2132" y1="103.814" y2="1267.9941"/><line style="stroke:#000000;stroke-width:1.0;" x1="2357" x2="2357" y1="103.814" y2="1267.9941"/><line style="stroke:#000000;stroke-width:1.0;" x1="2672" x2="2672" y1="103.814" y2="1267.9941"/><line style="stroke:#000000;stroke-width:1.0;" x1="2889" x2="2889" y1="103.814" y2="1267.9941"/><text fill="#000000" font-family="Verdana" font-size="14" lengthAdjust="spacing" textLength="31" x="15" y="100.8745">User</text><ellipse cx="33.5" cy="34.7993" fill="#FFFFFF" rx="8" ry="8" style="stroke:#000000;stroke-width:1.0;"/><path d="M33.5,42.7993 L33.5,69.7993 M20.5,50.7993 L46.5,50.7993 M33.5,69.7993 L20.5,84.7993 M33.5,69.7993 L46.5,84.7993 " fill="none" style="stroke:#000000;stroke-width:1.0;"/><text fill="#000000" font-family="Verdana" font-size="14" lengthAdjust="spacing" textLength="31" x="15" y="1281.0693">User</text><ellipse cx="33.5" cy="1293.0088" fill="#FFFFFF" rx="8" ry="8" style="stroke:#000000;stroke-width:1.0;"/><path d="M33.5,1301.0088 L33.5,1328.0088 M20.5,1309.0088 L46.5,1309.0088 M33.5,1328.0088 L20.5,1343.0088 M33.5,1328.0088 L46.5,1343.0088 " fill="none" style="stroke:#000000;stroke-width:1.0;"/><rect fill="#FFFFFF" height="31.0146" rx="2.5" ry="2.5" style="stroke:#000000;stroke-width:1.0;" width="87" x="202" y="71.7993"/><text fill="#000000" font-family="Verdana" font-size="14" lengthAdjust="spacing" textLength="73" x="209" y="92.8745">MobileApp</text><rect fill="#FFFFFF" height="31.0146" rx="2.5" ry="2.5" style="stroke:#000000;stroke-width:1.0;" width="87" x="202" y="1266.9941"/><text fill="#000000" font-family="Verdana" font-size="14" lengthAdjust="spacing" textLength="73" x="209" y="1288.0693">MobileApp</text><rect fill="#FFFFFF" height="31.0146" rx="2.5" ry="2.5" style="stroke:#000000;stroke-width:1.0;" width="148" x="336.5" y="71.7993"/><text fill="#000000" font-family="Verdana" font-size="14" lengthAdjust="spacing" textLength="134" x="343.5" y="92.8745">LiveChatScreen.jsx</text><rect fill="#FFFFFF" height="31.0146" rx="2.5" ry="2.5" style="stroke:#000000;stroke-width:1.0;" width="148" x="336.5" y="1266.9941"/><text fill="#000000" font-family="Verdana" font-size="14" lengthAdjust="spacing" textLength="134" x="343.5" y="1288.0693">LiveChatScreen.jsx</text><rect fill="#FFFFFF" height="31.0146" rx="2.5" ry="2.5" style="stroke:#000000;stroke-width:1.0;" width="109" x="642" y="71.7993"/><text fill="#000000" font-family="Verdana" font-size="14" lengthAdjust="spacing" textLength="95" x="649" y="92.8745">WebSocket.js</text><rect fill="#FFFFFF" height="31.0146" rx="2.5" ry="2.5" style="stroke:#000000;stroke-width:1.0;" width="109" x="642" y="1266.9941"/><text fill="#000000" font-family="Verdana" font-size="14" lengthAdjust="spacing" textLength="95" x="649" y="1288.0693">WebSocket.js</text><rect fill="#FFFFFF" height="31.0146" rx="2.5" ry="2.5" style="stroke:#000000;stroke-width:1.0;" width="161" x="781" y="71.7993"/><text fill="#000000" font-family="Verdana" font-size="14" lengthAdjust="spacing" textLength="147" x="788" y="92.8745">WebSocketModule.kt</text><rect fill="#FFFFFF" height="31.0146" rx="2.5" ry="2.5" style="stroke:#000000;stroke-width:1.0;" width="161" x="781" y="1266.9941"/><text fill="#000000" font-family="Verdana" font-size="14" lengthAdjust="spacing" textLength="147" x="788" y="1288.0693">WebSocketModule.kt</text><rect fill="#FFFFFF" height="31.0146" rx="2.5" ry="2.5" style="stroke:#000000;stroke-width:1.0;" width="82" x="1161.5" y="71.7993"/><text fill="#000000" font-family="Verdana" font-size="14" lengthAdjust="spacing" textLength="68" x="1168.5" y="92.8745">events.py</text><rect fill="#FFFFFF" height="31.0146" rx="2.5" ry="2.5" style="stroke:#000000;stroke-width:1.0;" width="82" x="1161.5" y="1266.9941"/><text fill="#000000" font-family="Verdana" font-size="14" lengthAdjust="spacing" textLength="68" x="1168.5" y="1288.0693">events.py</text><rect fill="#FFFFFF" height="31.0146" rx="2.5" ry="2.5" style="stroke:#000000;stroke-width:1.0;" width="79" x="1313" y="71.7993"/><text fill="#000000" font-family="Verdana" font-size="14" lengthAdjust="spacing" textLength="65" x="1320" y="92.8745">server.py</text><rect fill="#FFFFFF" height="31.0146" rx="2.5" ry="2.5" style="stroke:#000000;stroke-width:1.0;" width="79" x="1313" y="1266.9941"/><text fill="#000000" font-family="Verdana" font-size="14" lengthAdjust="spacing" textLength="65" x="1320" y="1288.0693">server.py</text><rect fill="#FFFFFF" height="31.0146" rx="2.5" ry="2.5" style="stroke:#000000;stroke-width:1.0;" width="78" x="1914.5" y="71.7993"/><text fill="#000000" font-family="Verdana" font-size="14" lengthAdjust="spacing" textLength="64" x="1921.5" y="92.8745">config.py</text><rect fill="#FFFFFF" height="31.0146" rx="2.5" ry="2.5" style="stroke:#000000;stroke-width:1.0;" width="78" x="1914.5" y="1266.9941"/><text fill="#000000" font-family="Verdana" font-size="14" lengthAdjust="spacing" textLength="64" x="1921.5" y="1288.0693">config.py</text><rect fill="#FFFFFF" height="31.0146" rx="2.5" ry="2.5" style="stroke:#000000;stroke-width:1.0;" width="103" x="2081" y="71.7993"/><text fill="#000000" font-family="Verdana" font-size="14" lengthAdjust="spacing" textLength="89" x="2088" y="92.8745">h11_impl.py</text><rect fill="#FFFFFF" height="31.0146" rx="2.5" ry="2.5" style="stroke:#000000;stroke-width:1.0;" width="103" x="2081" y="1266.9941"/><text fill="#000000" font-family="Verdana" font-size="14" lengthAdjust="spacing" textLength="89" x="2088" y="1288.0693">h11_impl.py</text><rect fill="#FFFFFF" height="31.0146" rx="2.5" ry="2.5" style="stroke:#000000;stroke-width:1.0;" width="131" x="2292" y="71.7993"/><text fill="#000000" font-family="Verdana" font-size="14" lengthAdjust="spacing" textLength="117" x="2299" y="92.8745">wsproto_impl.py</text><rect fill="#FFFFFF" height="31.0146" rx="2.5" ry="2.5" style="stroke:#000000;stroke-width:1.0;" width="131" x="2292" y="1266.9941"/><text fill="#000000" font-family="Verdana" font-size="14" lengthAdjust="spacing" textLength="117" x="2299" y="1288.0693">wsproto_impl.py</text><rect fill="#FFFFFF" height="31.0146" rx="2.5" ry="2.5" style="stroke:#000000;stroke-width:1.0;" width="71" x="2637" y="71.7993"/><text fill="#000000" font-family="Verdana" font-size="14" lengthAdjust="spacing" textLength="57" x="2644" y="92.8745">main.py</text><rect fill="#FFFFFF" height="31.0146" rx="2.5" ry="2.5" style="stroke:#000000;stroke-width:1.0;" width="71" x="2637" y="1266.9941"/><text fill="#000000" font-family="Verdana" font-size="14" lengthAdjust="spacing" textLength="57" x="2644" y="1288.0693">main.py</text><rect fill="#FFFFFF" height="31.0146" rx="2.5" ry="2.5" style="stroke:#000000;stroke-width:1.0;" width="115" x="2832" y="71.7993"/><text fill="#000000" font-family="Verdana" font-size="14" lengthAdjust="spacing" textLength="101" x="2839" y="92.8745">websockets.py</text><rect fill="#FFFFFF" height="31.0146" rx="2.5" ry="2.5" style="stroke:#000000;stroke-width:1.0;" width="115" x="2832" y="1266.9941"/><text fill="#000000" font-family="Verdana" font-size="14" lengthAdjust="spacing" textLength="101" x="2839" y="1288.0693">websockets.py</text><rect fill="#FFFFFF" height="1123.3809" style="stroke:#000000;stroke-width:1.0;" width="10" x="240.5" y="135.6133"/><rect fill="#FFFFFF" height="1093.5815" style="stroke:#000000;stroke-width:1.0;" width="10" x="405.5" y="165.4126"/><rect fill="#FFFFFF" height="1055.7822" style="stroke:#000000;stroke-width:1.0;" width="10" x="410.5" y="203.2119"/><rect fill="#FFFFFF" height="1020.9829" style="stroke:#000000;stroke-width:1.0;" width="10" x="691.5" y="238.0112"/><rect fill="#FFFFFF" height="991.1836" style="stroke:#000000;stroke-width:1.0;" width="10" x="856.5" y="267.8105"/><rect fill="#FFFFFF" height="953.3843" style="stroke:#000000;stroke-width:1.0;" width="10" x="861.5" y="305.6099"/><rect fill="#FFFFFF" height="953.3843" style="stroke:#000000;stroke-width:1.0;" width="10" x="1197.5" y="305.6099"/><rect fill="#FFFFFF" height="953.3843" style="stroke:#000000;stroke-width:1.0;" width="10" x="1347.5" y="305.6099"/><rect fill="#FFFFFF" height="844.9863" style="stroke:#000000;stroke-width:1.0;" width="10" x="1352.5" y="414.0078"/><rect fill="#FFFFFF" height="14" style="stroke:#000000;stroke-width:1.0;" width="10" x="1948.5" y="443.8071"/><rect fill="#FFFFFF" height="472.5918" style="stroke:#000000;stroke-width:1.0;" width="10" x="1948.5" y="786.4023"/><rect fill="#FFFFFF" height="727.5884" style="stroke:#000000;stroke-width:1.0;" width="10" x="2127.5" y="531.4058"/><rect fill="#FFFFFF" height="689.7891" style="stroke:#000000;stroke-width:1.0;" width="10" x="2132.5" y="569.2051"/><rect fill="#FFFFFF" height="94.7993" style="stroke:#000000;stroke-width:1.0;" width="10" x="2137.5" y="612.0044"/><rect fill="#FFFFFF" height="25" style="stroke:#000000;stroke-width:1.0;" width="10" x="2142.5" y="654.8037"/><rect fill="#FFFFFF" height="507.3911" style="stroke:#000000;stroke-width:1.0;" width="10" x="2137.5" y="751.603"/><rect fill="#FFFFFF" height="442.7925" style="stroke:#000000;stroke-width:1.0;" width="10" x="2352.5" y="816.2017"/><rect fill="#FFFFFF" height="361.1938" style="stroke:#000000;stroke-width:1.0;" width="10" x="2357.5" y="897.8003"/><rect fill="#FFFFFF" height="318.3945" style="stroke:#000000;stroke-width:1.0;" width="10" x="2362.5" y="940.5996"/><rect fill="#FFFFFF" height="275.5952" style="stroke:#000000;stroke-width:1.0;" width="10" x="2367.5" y="983.3989"/><rect fill="#FFFFFF" height="232.7959" style="stroke:#000000;stroke-width:1.0;" width="10" x="2372.5" y="1026.1982"/><rect fill="#FFFFFF" height="189.9966" style="stroke:#000000;stroke-width:1.0;" width="10" x="2377.5" y="1068.9976"/><rect fill="#FFFFFF" height="9" style="stroke:#000000;stroke-width:1.0;" width="10" x="2382.5" y="1249.9941"/><rect fill="#FFFFFF" height="111.3979" style="stroke:#000000;stroke-width:1.0;" width="10" x="2667.5" y="1147.5962"/><rect fill="#FFFFFF" height="81.5986" style="stroke:#000000;stroke-width:1.0;" width="10" x="2884.5" y="1177.3955"/><rect fill="#FFFFFF" height="43.7993" style="stroke:#000000;stroke-width:1.0;" width="10" x="2889.5" y="1215.1948"/><polygon fill="#000000" points="228.5,131.6133,238.5,135.6133,228.5,139.6133,232.5,135.6133" style="stroke:#000000;stroke-width:1.0;"/><line style="stroke:#000000;stroke-width:1.0;" x1="33.5" x2="234.5" y1="135.6133" y2="135.6133"/><text fill="#000000" font-family="Verdana" font-size="13" lengthAdjust="spacing" textLength="188" x="40.5" y="130.8838">(Start) User clicks chat icon</text><polygon fill="#000000" points="393.5,161.4126,403.5,165.4126,393.5,169.4126,397.5,165.4126" style="stroke:#000000;stroke-width:1.0;"/><line style="stroke:#000000;stroke-width:1.0;" x1="250.5" x2="399.5" y1="165.4126" y2="165.4126"/><text fill="#000000" font-family="Verdana" font-size="13" lengthAdjust="spacing" textLength="136" x="257.5" y="160.6831">User starts live chat</text><line style="stroke:#000000;stroke-width:1.0;" x1="415.5" x2="462.5" y1="190.2119" y2="190.2119"/><line style="stroke:#000000;stroke-width:1.0;" x1="462.5" x2="462.5" y1="190.2119" y2="203.2119"/><line style="stroke:#000000;stroke-width:1.0;" x1="421.5" x2="462.5" y1="203.2119" y2="203.2119"/><polygon fill="#000000" points="431.5,199.2119,421.5,203.2119,431.5,207.2119,427.5,203.2119" style="stroke:#000000;stroke-width:1.0;"/><text fill="#000000" font-family="Verdana" font-size="13" lengthAdjust="spacing" textLength="63" x="427.5" y="185.4824">connect()</text><polygon fill="#000000" points="679.5,234.0112,689.5,238.0112,679.5,242.0112,683.5,238.0112" style="stroke:#000000;stroke-width:1.0;"/><line style="stroke:#000000;stroke-width:1.0;" x1="420.5" x2="685.5" y1="238.0112" y2="238.0112"/><text fill="#000000" font-family="Verdana" font-size="13" lengthAdjust="spacing" textLength="252" x="427.5" y="233.2817">Initialises WebSocket object with URL</text><polygon fill="#000000" points="844.5,263.8105,854.5,267.8105,844.5,271.8105,848.5,267.8105" style="stroke:#000000;stroke-width:1.0;"/><line style="stroke:#000000;stroke-width:1.0;" x1="701.5" x2="850.5" y1="267.8105" y2="267.8105"/><text fill="#000000" font-family="Verdana" font-size="13" lengthAdjust="spacing" textLength="63" x="708.5" y="263.0811">connect()</text><line style="stroke:#000000;stroke-width:1.0;" x1="866.5" x2="913.5" y1="292.6099" y2="292.6099"/><line style="stroke:#000000;stroke-width:1.0;" x1="913.5" x2="913.5" y1="292.6099" y2="305.6099"/><line style="stroke:#000000;stroke-width:1.0;" x1="872.5" x2="913.5" y1="305.6099" y2="305.6099"/><polygon fill="#000000" points="882.5,301.6099,872.5,305.6099,882.5,309.6099,878.5,305.6099" style="stroke:#000000;stroke-width:1.0;"/><text fill="#000000" font-family="Verdana" font-size="13" lengthAdjust="spacing" textLength="247" x="878.5" y="287.8804">.newWebSocket(), uses OkHttpClient</text><rect fill="#FFFFFF" height="3" style="stroke:#FFFFFF;stroke-width:1.0;" width="2980.5" x="5" y="339.5095"/><line style="stroke:#000000;stroke-width:0.5;" x1="5" x2="2985.5" y1="339.5095" y2="339.5095"/><line style="stroke:#000000;stroke-width:0.5;" x1="5" x2="2985.5" y1="342.5095" y2="342.5095"/><rect fill="#FFFFFF" height="23.7993" style="stroke:#000000;stroke-width:1.0;" width="388" x="1301.25" y="328.6099"/><text fill="#000000" font-family="Verdana" font-size="13" font-weight="bold" lengthAdjust="spacing" textLength="370" x="1307.25" y="345.6797">Assumed Server already running in the background</text><polygon fill="#000000" points="1185.5,380.2085,1195.5,384.2085,1185.5,388.2085,1189.5,384.2085" style="stroke:#000000;stroke-width:1.0;"/><line style="stroke:#000000;stroke-width:1.0;" x1="871.5" x2="1191.5" y1="384.2085" y2="384.2085"/><text fill="#000000" font-family="Verdana" font-size="13" lengthAdjust="spacing" textLength="302" x="878.5" y="379.479">await loop.create_server(...), server listener</text><polygon fill="#000000" points="1340.5,410.0078,1350.5,414.0078,1340.5,418.0078,1344.5,414.0078" style="stroke:#000000;stroke-width:1.0;"/><line style="stroke:#000000;stroke-width:1.0;" x1="1207.5" x2="1346.5" y1="414.0078" y2="414.0078"/><text fill="#000000" font-family="Verdana" font-size="13" lengthAdjust="spacing" textLength="116" x="1214.5" y="409.2783">create_protocol()</text><polygon fill="#000000" points="1936.5,439.8071,1946.5,443.8071,1936.5,447.8071,1940.5,443.8071" style="stroke:#000000;stroke-width:1.0;"/><line style="stroke:#000000;stroke-width:1.0;" x1="1362.5" x2="1942.5" y1="443.8071" y2="443.8071"/><text fill="#000000" font-family="Verdana" font-size="13" lengthAdjust="spacing" textLength="567" x="1369.5" y="439.0776">.http_protocol_class(), specifies the AutoHTTPProtocol which defaults to H11Protocol</text><polygon fill="#000000" points="1373.5,453.8071,1363.5,457.8071,1373.5,461.8071,1369.5,457.8071" style="stroke:#000000;stroke-width:1.0;"/><line style="stroke:#000000;stroke-width:1.0;stroke-dasharray:2.0,2.0;" x1="1367.5" x2="1952.5" y1="457.8071" y2="457.8071"/><rect fill="#FFFFFF" height="3" style="stroke:#FFFFFF;stroke-width:1.0;" width="2980.5" x="5" y="486.7068"/><line style="stroke:#000000;stroke-width:0.5;" x1="5" x2="2985.5" y1="486.7068" y2="486.7068"/><line style="stroke:#000000;stroke-width:0.5;" x1="5" x2="2985.5" y1="489.7068" y2="489.7068"/><rect fill="#FFFFFF" height="23.7993" style="stroke:#000000;stroke-width:1.0;" width="846" x="1072.25" y="475.8071"/><text fill="#000000" font-family="Verdana" font-size="13" font-weight="bold" lengthAdjust="spacing" textLength="828" x="1078.25" y="492.877">Protocol which inherits from asyncio.Protocol, this calls data_received automatically when TCP bytes are received</text><polygon fill="#000000" points="2115.5,527.4058,2125.5,531.4058,2115.5,535.4058,2119.5,531.4058" style="stroke:#000000;stroke-width:1.0;"/><line style="stroke:#000000;stroke-width:1.0;" x1="1362.5" x2="2121.5" y1="531.4058" y2="531.4058"/><text fill="#000000" font-family="Verdana" font-size="13" lengthAdjust="spacing" textLength="450" x="1369.5" y="526.6763">data_received(), called automatically when TCP bytes are received</text><line style="stroke:#000000;stroke-width:1.0;" x1="2137.5" x2="2184.5" y1="556.2051" y2="556.2051"/><line style="stroke:#000000;stroke-width:1.0;" x1="2184.5" x2="2184.5" y1="556.2051" y2="569.2051"/><line style="stroke:#000000;stroke-width:1.0;" x1="2143.5" x2="2184.5" y1="569.2051" y2="569.2051"/><polygon fill="#000000" points="2153.5,565.2051,2143.5,569.2051,2153.5,573.2051,2149.5,569.2051" style="stroke:#000000;stroke-width:1.0;"/><text fill="#000000" font-family="Verdana" font-size="13" lengthAdjust="spacing" textLength="108" x="2149.5" y="551.4756">handle_events()</text><line style="stroke:#000000;stroke-width:1.0;" x1="2142.5" x2="2189.5" y1="599.0044" y2="599.0044"/><line style="stroke:#000000;stroke-width:1.0;" x1="2189.5" x2="2189.5" y1="599.0044" y2="612.0044"/><line style="stroke:#000000;stroke-width:1.0;" x1="2148.5" x2="2189.5" y1="612.0044" y2="612.0044"/><polygon fill="#000000" points="2158.5,608.0044,2148.5,612.0044,2158.5,616.0044,2154.5,612.0044" style="stroke:#000000;stroke-width:1.0;"/><text fill="#000000" font-family="Verdana" font-size="13" lengthAdjust="spacing" textLength="125" x="2154.5" y="594.2749">_should_upgrade()</text><line style="stroke:#000000;stroke-width:1.0;" x1="2147.5" x2="2194.5" y1="641.8037" y2="641.8037"/><line style="stroke:#000000;stroke-width:1.0;" x1="2194.5" x2="2194.5" y1="641.8037" y2="654.8037"/><line style="stroke:#000000;stroke-width:1.0;" x1="2153.5" x2="2194.5" y1="654.8037" y2="654.8037"/><polygon fill="#000000" points="2163.5,650.8037,2153.5,654.8037,2163.5,658.8037,2159.5,654.8037" style="stroke:#000000;stroke-width:1.0;"/><text fill="#000000" font-family="Verdana" font-size="13" lengthAdjust="spacing" textLength="103" x="2159.5" y="637.0742">_get_upgrade()</text><line style="stroke:#000000;stroke-width:1.0;stroke-dasharray:2.0,2.0;" x1="2152.5" x2="2194.5" y1="678.8037" y2="678.8037"/><line style="stroke:#000000;stroke-width:1.0;stroke-dasharray:2.0,2.0;" x1="2194.5" x2="2194.5" y1="678.8037" y2="691.8037"/><line style="stroke:#000000;stroke-width:1.0;stroke-dasharray:2.0,2.0;" x1="2147.5" x2="2194.5" y1="691.8037" y2="691.8037"/><polygon fill="#000000" points="2157.5,687.8037,2147.5,691.8037,2157.5,695.8037,2153.5,691.8037" style="stroke:#000000;stroke-width:1.0;"/><line style="stroke:#000000;stroke-width:1.0;stroke-dasharray:2.0,2.0;" x1="2147.5" x2="2189.5" y1="705.8037" y2="705.8037"/><line style="stroke:#000000;stroke-width:1.0;stroke-dasharray:2.0,2.0;" x1="2189.5" x2="2189.5" y1="705.8037" y2="718.8037"/><line style="stroke:#000000;stroke-width:1.0;stroke-dasharray:2.0,2.0;" x1="2142.5" x2="2189.5" y1="718.8037" y2="718.8037"/><polygon fill="#000000" points="2152.5,714.8037,2142.5,718.8037,2152.5,722.8037,2148.5,718.8037" style="stroke:#000000;stroke-width:1.0;"/><line style="stroke:#000000;stroke-width:1.0;" x1="2142.5" x2="2189.5" y1="738.603" y2="738.603"/><line style="stroke:#000000;stroke-width:1.0;" x1="2189.5" x2="2189.5" y1="738.603" y2="751.603"/><line style="stroke:#000000;stroke-width:1.0;" x1="2148.5" x2="2189.5" y1="751.603" y2="751.603"/><polygon fill="#000000" points="2158.5,747.603,2148.5,751.603,2158.5,755.603,2154.5,751.603" style="stroke:#000000;stroke-width:1.0;"/><text fill="#000000" font-family="Verdana" font-size="13" lengthAdjust="spacing" textLength="196" x="2154.5" y="733.8735">handle_websocket_upgrade()</text><polygon fill="#000000" points="1969.5,782.4023,1959.5,786.4023,1969.5,790.4023,1965.5,786.4023" style="stroke:#000000;stroke-width:1.0;"/><line style="stroke:#000000;stroke-width:1.0;" x1="1963.5" x2="2136.5" y1="786.4023" y2="786.4023"/><text fill="#000000" font-family="Verdana" font-size="13" lengthAdjust="spacing" textLength="150" x="1975.5" y="781.6729">self.ws_protocol_class</text><polygon fill="#000000" points="2340.5,812.2017,2350.5,816.2017,2340.5,820.2017,2344.5,816.2017" style="stroke:#000000;stroke-width:1.0;"/><line style="stroke:#000000;stroke-width:1.0;" x1="1958.5" x2="2346.5" y1="816.2017" y2="816.2017"/><text fill="#000000" font-family="Verdana" font-size="13" lengthAdjust="spacing" textLength="133" x="1965.5" y="811.4722">WebSocketProtocol.</text><text fill="#000000" font-family="Verdana" font-size="13" lengthAdjust="spacing" text-decoration="underline" textLength="21" x="2098.5" y="811.4722">init</text><text fill="#000000" font-family="Verdana" font-size="13" lengthAdjust="spacing" textLength="12" x="2119.5" y="811.4722">()</text><rect fill="#FFFFFF" height="3" style="stroke:#FFFFFF;stroke-width:1.0;" width="2980.5" x="5" y="845.1013"/><line style="stroke:#000000;stroke-width:0.5;" x1="5" x2="2985.5" y1="845.1013" y2="845.1013"/><line style="stroke:#000000;stroke-width:0.5;" x1="5" x2="2985.5" y1="848.1013" y2="848.1013"/><rect fill="#FFFFFF" height="23.7993" style="stroke:#000000;stroke-width:1.0;" width="929" x="1030.75" y="834.2017"/><text fill="#000000" font-family="Verdana" font-size="13" font-weight="bold" lengthAdjust="spacing" textLength="911" x="1036.75" y="851.2715">WebSocketProtocol which inherits from asyncio.Protocol, this calls data_received automatically when TCP bytes are received</text><line style="stroke:#000000;stroke-width:1.0;" x1="2362.5" x2="2409.5" y1="884.8003" y2="884.8003"/><line style="stroke:#000000;stroke-width:1.0;" x1="2409.5" x2="2409.5" y1="884.8003" y2="897.8003"/><line style="stroke:#000000;stroke-width:1.0;" x1="2368.5" x2="2409.5" y1="897.8003" y2="897.8003"/><polygon fill="#000000" points="2378.5,893.8003,2368.5,897.8003,2378.5,901.8003,2374.5,897.8003" style="stroke:#000000;stroke-width:1.0;"/><text fill="#000000" font-family="Verdana" font-size="13" lengthAdjust="spacing" textLength="106" x="2374.5" y="880.0708">data_received()</text><line style="stroke:#000000;stroke-width:1.0;" x1="2367.5" x2="2414.5" y1="927.5996" y2="927.5996"/><line style="stroke:#000000;stroke-width:1.0;" x1="2414.5" x2="2414.5" y1="927.5996" y2="940.5996"/><line style="stroke:#000000;stroke-width:1.0;" x1="2373.5" x2="2414.5" y1="940.5996" y2="940.5996"/><polygon fill="#000000" points="2383.5,936.5996,2373.5,940.5996,2383.5,944.5996,2379.5,940.5996" style="stroke:#000000;stroke-width:1.0;"/><text fill="#000000" font-family="Verdana" font-size="13" lengthAdjust="spacing" textLength="108" x="2379.5" y="922.8701">handle_events()</text><line style="stroke:#000000;stroke-width:1.0;" x1="2372.5" x2="2419.5" y1="970.3989" y2="970.3989"/><line style="stroke:#000000;stroke-width:1.0;" x1="2419.5" x2="2419.5" y1="970.3989" y2="983.3989"/><line style="stroke:#000000;stroke-width:1.0;" x1="2378.5" x2="2419.5" y1="983.3989" y2="983.3989"/><polygon fill="#000000" points="2388.5,979.3989,2378.5,983.3989,2388.5,987.3989,2384.5,983.3989" style="stroke:#000000;stroke-width:1.0;"/><text fill="#000000" font-family="Verdana" font-size="13" lengthAdjust="spacing" textLength="115" x="2384.5" y="965.6694">handle_connect()</text><line style="stroke:#000000;stroke-width:1.0;" x1="2377.5" x2="2424.5" y1="1013.1982" y2="1013.1982"/><line style="stroke:#000000;stroke-width:1.0;" x1="2424.5" x2="2424.5" y1="1013.1982" y2="1026.1982"/><line style="stroke:#000000;stroke-width:1.0;" x1="2383.5" x2="2424.5" y1="1026.1982" y2="1026.1982"/><polygon fill="#000000" points="2393.5,1022.1982,2383.5,1026.1982,2393.5,1030.1982,2389.5,1026.1982" style="stroke:#000000;stroke-width:1.0;"/><text fill="#000000" font-family="Verdana" font-size="13" lengthAdjust="spacing" textLength="276" x="2389.5" y="1008.4688">run_asgi(), awaiting the ASGI application</text><line style="stroke:#000000;stroke-width:1.0;" x1="2382.5" x2="2429.5" y1="1055.9976" y2="1055.9976"/><line style="stroke:#000000;stroke-width:1.0;" x1="2429.5" x2="2429.5" y1="1055.9976" y2="1068.9976"/><line style="stroke:#000000;stroke-width:1.0;" x1="2388.5" x2="2429.5" y1="1068.9976" y2="1068.9976"/><polygon fill="#000000" points="2398.5,1064.9976,2388.5,1068.9976,2398.5,1072.9976,2394.5,1068.9976" style="stroke:#000000;stroke-width:1.0;"/><text fill="#000000" font-family="Verdana" font-size="13" lengthAdjust="spacing" textLength="132" x="2394.5" y="1051.2681">self.app(self.scope)</text><rect fill="#FFFFFF" height="3" style="stroke:#FFFFFF;stroke-width:1.0;" width="2980.5" x="5" y="1102.8972"/><line style="stroke:#000000;stroke-width:0.5;" x1="5" x2="2985.5" y1="1102.8972" y2="1102.8972"/><line style="stroke:#000000;stroke-width:0.5;" x1="5" x2="2985.5" y1="1105.8972" y2="1105.8972"/><rect fill="#FFFFFF" height="23.7993" style="stroke:#000000;stroke-width:1.0;" width="241" x="1374.75" y="1091.9976"/><text fill="#000000" font-family="Verdana" font-size="13" font-weight="bold" lengthAdjust="spacing" textLength="223" x="1380.75" y="1109.0674">Routes request to FastAPI app</text><polygon fill="#000000" points="2655.5,1143.5962,2665.5,1147.5962,2655.5,1151.5962,2659.5,1147.5962" style="stroke:#000000;stroke-width:1.0;"/><line style="stroke:#000000;stroke-width:1.0;" x1="2387.5" x2="2661.5" y1="1147.5962" y2="1147.5962"/><text fill="#000000" font-family="Verdana" font-size="13" lengthAdjust="spacing" textLength="171" x="2394.5" y="1142.8667">await websocket.accept()</text><polygon fill="#000000" points="2872.5,1173.3955,2882.5,1177.3955,2872.5,1181.3955,2876.5,1177.3955" style="stroke:#000000;stroke-width:1.0;"/><line style="stroke:#000000;stroke-width:1.0;" x1="2677.5" x2="2878.5" y1="1177.3955" y2="1177.3955"/><text fill="#000000" font-family="Verdana" font-size="13" lengthAdjust="spacing" textLength="188" x="2684.5" y="1172.666">accept() (starlette package)</text><line style="stroke:#000000;stroke-width:1.0;" x1="2894.5" x2="2941.5" y1="1202.1948" y2="1202.1948"/><line style="stroke:#000000;stroke-width:1.0;" x1="2941.5" x2="2941.5" y1="1202.1948" y2="1215.1948"/><line style="stroke:#000000;stroke-width:1.0;" x1="2900.5" x2="2941.5" y1="1215.1948" y2="1215.1948"/><polygon fill="#000000" points="2910.5,1211.1948,2900.5,1215.1948,2910.5,1219.1948,2906.5,1215.1948" style="stroke:#000000;stroke-width:1.0;"/><text fill="#000000" font-family="Verdana" font-size="13" lengthAdjust="spacing" textLength="72" x="2906.5" y="1197.4653">self.send()</text><polygon fill="#000000" points="2403.5,1245.9941,2393.5,1249.9941,2403.5,1253.9941,2399.5,1249.9941" style="stroke:#000000;stroke-width:1.0;"/><line style="stroke:#000000;stroke-width:1.0;" x1="2397.5" x2="2888.5" y1="1249.9941" y2="1249.9941"/><text fill="#000000" font-family="Verdana" font-size="13" lengthAdjust="spacing" textLength="207" x="2409.5" y="1245.2646">asgi_send(), accept handshake</text><!--SRC=[lLPTRziu47pdhzXh7-e0gG0VhdV10IbWk7OJeCK5TOfx56XgPR6cIHr9sV6_lwLawykoswH0qPTKv0o7iyDT_-Opt23aYalDs9lPaqUhkOA9yCOojZHFyEghG_iANi_dyz-dKmR0mng4hmnr0hJdi76g96eFapodxUaD_Yb4cX8WvzPB8NDEYv_DKYgaBRtld-GMfndt2s4HTVJDFJNauIXu-xx1mjymMdX2NvKoG2WfrWu4uK4Aenb9b5lkiNKSQz14TNeSSPPSBl0wKBIX96ou1YIo0PvpxAHBe_2ZgykCbPKMQTDRpMaZafaVtirkFlpHi-nVN2wCMACduBcbpoOf54PhtxXvHdERZTJUQ-abLzAXQvR0BB_H5M0dVGPVltngRjBHmZfSRUvQph0V0x9RP0tu76MaSLSlZAwkeGZo_rdVUPzNuRnyLcazTtijf0c9lvdEoiIthSKjqRWet_V2NsmfULOJR3QcSltLWr6qjcW3hFkTN4ZbwlHxDXx7SfEhqvMTowtnfbxjofXpvoSFzo4pazdDlAz-G-_y51Gohz3x4BNvk_2lVoOkNMbMz-Atjp1nhjXW0eloVi0L9JVPWosqbde5KWDr65XoiLvPKn3mzfOrHMZCh3yrHWqNlePGlO7lkFIWZCaZ2ZF1ume-YgA8ob_zXzwoywYfNR46J4prII6C5RfqLXZL3cKZY3K8WjUL2y7BA64rEXQAEnVovt8KCfKKmk32fF3cxl7nuU6m3tQP51aacF92KS_n1kx6u-Dgew392BFe2wjBvtiiKcTe9R6arcpW4EBekEcQ14Zga5mf1mdtFBOea1f10fnKRQZHXBKzaQ66n-a3BFUUP7EBKEyCfUjOq0efcT2X3RSFZCyveBbnE_sCjOyvEJNZEb4OLvLjrwt3SP4YTfafL18N-Sho15z8iaB_NOP3-OvL_96BrK_lkVBQ-NIeqcZdUWaTJ5W38uvUho6c-b4UanN5iQHP4STjNVqUnTu0J-cdnOxRX79kkNQviJIi7Kdp8VZXVPnmKwYfDMc1PU1FbtzfyljU3DhJUmCN7FaXkhFX_YcwWSdxCZxgyZ5tAnaUUzcAGyilEztYuptmFAVVPUHl-mVPomugyqjye_8F9qoEbyHJMBwO8bJHudy5kZ9XXyaOP9shvs4wqe7LOAdVNiI5mBpZs76IiYCe26-FoS1oGC6edh0qLiMQhphoEyELTKa6M2iFQ0YFdaDoucaeN5pHN1-KbW5n6L_Z1NFP_m00]--></g></svg>